{"glyphs":{"0":{"ha":772,"x_min":0,"x_max":0,"o":"m 47 492 b 386 1000 47 707 107 1000 b 725 492 665 1000 725 707 b 386 -17 725 285 665 -17 b 47 492 107 -17 47 285 m 181 492 b 386 100 181 364 200 100 b 592 492 572 100 592 364 b 386 883 592 628 572 883 b 181 492 200 883 181 628 "},"1":{"ha":772,"x_min":0,"x_max":0,"o":"m 375 831 l 194 664 l 117 757 l 390 983 l 508 983 l 508 0 l 375 0 "},"2":{"ha":772,"x_min":0,"x_max":0,"o":"m 64 142 l 458 533 b 567 735 513 586 567 654 b 397 892 567 832 490 892 b 218 740 301 892 235 833 l 74 753 b 399 1008 100 926 229 1008 b 708 736 568 1008 708 917 b 538 429 708 607 625 514 l 214 117 l 708 117 l 708 0 l 64 0 "},"3":{"ha":772,"x_min":0,"x_max":0,"o":"m 204 240 b 385 100 236 146 281 100 b 575 278 488 100 575 172 b 299 461 575 442 424 461 l 299 578 b 550 732 501 578 550 635 b 385 892 550 836 479 892 b 221 778 313 892 250 846 l 85 824 b 382 1008 136 949 251 1008 b 683 740 543 1008 683 922 b 515 518 683 638 615 547 l 515 515 b 708 268 639 494 708 389 b 381 -17 708 79 554 -17 b 64 197 231 -17 108 49 "},"4":{"ha":772,"x_min":0,"x_max":0,"o":"m 467 217 l 47 217 l 47 353 l 439 983 l 600 983 l 600 333 l 739 333 l 739 217 l 600 217 l 600 0 l 467 0 m 467 825 l 464 825 l 164 333 l 467 333 "},"5":{"ha":772,"x_min":0,"x_max":0,"o":"m 654 858 l 256 858 l 251 613 b 383 633 279 625 351 633 b 689 308 568 633 689 500 b 343 -17 689 113 535 -17 b 47 182 210 -17 93 54 l 182 228 b 364 100 217 138 276 100 b 556 301 469 100 556 176 b 318 517 556 444 458 517 b 115 465 268 517 182 499 l 126 983 l 654 983 "},"6":{"ha":772,"x_min":0,"x_max":0,"o":"m 306 603 l 311 603 b 419 625 343 618 379 625 b 724 314 561 625 724 529 b 386 -17 724 97 571 -17 b 49 300 201 -17 49 108 b 147 590 49 421 88 496 l 396 983 l 553 983 m 182 304 b 386 100 182 185 264 100 b 590 304 508 100 590 185 b 386 508 590 424 508 508 b 182 304 264 508 182 424 "},"7":{"ha":772,"x_min":0,"x_max":0,"o":"m 533 867 l 58 867 l 58 983 l 676 983 l 676 869 l 285 0 l 135 0 "},"8":{"ha":772,"x_min":0,"x_max":0,"o":"m 386 -17 b 65 282 207 -17 65 96 b 253 522 65 404 146 493 l 253 526 b 99 756 179 546 99 619 b 386 1000 99 904 232 1000 b 674 756 540 1000 674 904 b 519 526 674 619 593 546 l 519 522 b 707 282 626 493 707 404 b 386 -17 707 96 565 -17 m 232 736 b 386 581 232 660 288 581 b 540 736 489 581 540 656 b 386 892 540 826 478 892 b 232 736 301 892 232 828 m 386 100 b 574 282 497 100 574 175 b 386 464 574 401 490 463 b 199 282 278 463 199 386 b 386 100 199 167 285 100 "},"9":{"ha":772,"x_min":0,"x_max":0,"o":"m 467 381 l 461 381 b 353 358 429 365 393 358 b 49 669 211 358 49 454 b 386 1000 49 886 201 1000 b 724 683 571 1000 724 875 b 625 393 724 563 685 488 l 376 0 l 219 0 m 590 679 b 386 883 590 799 508 883 b 182 679 264 883 182 799 b 386 475 182 560 264 475 b 590 679 508 475 590 560 "}," ":{"ha":386,"x_min":0,"x_max":0,"o":""},"!":{"ha":386,"x_min":0,"x_max":0,"o":"m 257 283 l 124 283 l 124 983 l 257 983 m 101 83 b 193 175 101 133 143 175 b 285 83 243 175 285 133 b 193 -8 285 33 243 -8 b 101 83 143 -8 101 33 "},"\"":{"ha":721,"x_min":0,"x_max":0,"o":"m 203 983 l 311 983 l 311 642 l 203 642 m 410 983 l 518 983 l 518 642 l 410 642 "},"#":{"ha":772,"x_min":0,"x_max":0,"o":"m 167 283 l 35 283 l 35 392 l 182 392 l 210 592 l 78 592 l 78 700 l 225 700 l 264 983 l 374 983 l 335 700 l 496 700 l 535 983 l 644 983 l 606 700 l 738 700 l 738 592 l 590 592 l 563 392 l 694 392 l 694 283 l 547 283 l 508 0 l 399 0 l 438 283 l 276 283 l 238 0 l 128 0 m 319 592 l 292 392 l 453 392 l 481 592 "},"$":{"ha":772,"x_min":0,"x_max":0,"o":"m 417 1000 b 692 893 518 1000 621 967 l 592 796 b 417 883 550 850 486 882 l 417 556 l 414 554 b 717 269 575 510 717 458 b 417 -17 717 100 578 -7 l 417 -117 l 342 -117 l 342 -17 b 36 117 221 -17 111 19 l 143 213 b 342 100 185 143 264 103 l 342 442 b 58 726 192 481 58 550 b 342 1000 58 885 193 988 l 342 1100 l 417 1100 m 342 883 b 192 726 254 869 192 814 b 342 575 192 639 264 597 m 417 100 b 583 264 508 111 583 169 b 417 422 583 360 500 396 "},"%":{"ha":1183,"x_min":0,"x_max":0,"o":"m 51 763 b 297 1008 51 899 161 1008 b 543 763 433 1008 543 899 b 297 517 543 626 433 517 b 51 763 161 517 51 626 m 160 763 b 297 625 160 686 221 625 b 435 763 374 625 435 686 b 297 900 435 839 374 900 b 160 763 221 900 160 839 m 640 221 b 886 467 640 357 750 467 b 1132 221 1022 467 1132 357 b 886 -25 1132 85 1022 -25 b 640 221 750 -25 640 85 m 749 221 b 886 83 749 144 810 83 b 1024 221 963 83 1024 144 b 886 358 1024 297 963 358 b 749 221 810 358 749 297 m 326 -43 l 243 0 l 861 1028 l 944 985 "},"&":{"ha":1003,"x_min":0,"x_max":0,"o":"m 989 0 l 810 0 l 689 131 b 388 -25 606 31 519 -25 b 65 260 165 -25 65 117 b 289 542 65 397 169 485 b 174 769 226 608 174 674 b 436 1000 174 919 296 1000 b 690 778 574 1000 690 926 b 486 525 690 654 585 576 l 681 322 l 804 524 l 956 524 l 765 229 m 557 778 b 438 883 557 843 507 883 b 307 768 367 883 307 842 b 404 604 307 703 361 647 b 557 778 472 642 557 689 m 372 464 b 207 264 293 418 207 365 b 392 92 207 168 297 92 b 610 217 488 92 558 156 "},"’":{"ha":386,"x_min":0,"x_max":0,"o":"m 192 642 l 78 642 l 174 983 l 308 983 "},"(":{"ha":386,"x_min":0,"x_max":0,"o":"m 353 964 b 175 400 233 776 175 624 b 353 -161 175 197 235 1 l 269 -217 b 67 400 142 -43 67 172 b 269 1017 67 613 138 835 "},")":{"ha":386,"x_min":0,"x_max":0,"o":"m 33 -164 b 211 400 153 24 211 176 b 33 961 211 603 151 799 l 117 1017 b 319 400 244 843 319 628 b 117 -217 319 188 249 -35 "},"*":{"ha":644,"x_min":0,"x_max":0,"o":"m 374 779 l 567 844 l 596 751 l 403 689 l 525 524 l 449 467 l 322 636 l 199 469 l 122 526 l 246 689 l 49 756 l 78 846 l 274 779 l 274 983 l 374 983 "},"+":{"ha":925,"x_min":0,"x_max":0,"o":"m 92 475 l 408 475 l 408 792 l 517 792 l 517 475 l 833 475 l 833 367 l 517 367 l 517 50 l 408 50 l 408 367 l 92 367 "},",":{"ha":386,"x_min":0,"x_max":0,"o":"m 181 -183 l 67 -183 l 163 158 l 297 158 "},"-":{"ha":439,"x_min":0,"x_max":0,"o":"m 390 278 l 49 278 l 49 394 l 390 394 "},".":{"ha":386,"x_min":0,"x_max":0,"o":"m 193 -8 b 101 83 143 -8 101 33 b 193 175 101 133 143 175 b 285 83 243 175 285 133 b 193 -8 285 33 243 -8 "},"/":{"ha":540,"x_min":0,"x_max":0,"o":"m 97 -61 l 0 -25 l 444 1044 l 540 1008 "},":":{"ha":386,"x_min":0,"x_max":0,"o":"m 193 483 b 101 575 143 483 101 525 b 193 667 101 625 143 667 b 285 575 243 667 285 625 b 193 483 285 525 243 483 m 101 83 b 193 175 101 133 143 175 b 285 83 243 175 285 133 b 193 -8 285 33 243 -8 b 101 83 143 -8 101 33 "},";":{"ha":386,"x_min":0,"x_max":0,"o":"m 181 -183 l 67 -183 l 163 158 l 297 158 m 101 574 b 193 665 101 624 143 665 b 285 574 243 665 285 624 b 193 482 285 524 243 482 b 101 574 143 482 101 524 "},"<":{"ha":925,"x_min":0,"x_max":0,"o":"m 833 60 l 92 364 l 92 478 l 833 783 l 833 674 l 206 421 l 833 168 "},"=":{"ha":925,"x_min":0,"x_max":0,"o":"m 833 583 l 833 475 l 92 475 l 92 583 m 833 365 l 833 257 l 92 257 l 92 365 "},">":{"ha":925,"x_min":0,"x_max":0,"o":"m 92 782 l 833 478 l 833 364 l 92 58 l 92 168 l 719 421 l 92 674 "},"?":{"ha":694,"x_min":0,"x_max":0,"o":"m 292 275 l 292 360 b 390 551 292 461 318 482 b 517 744 449 608 517 661 b 369 892 517 829 451 892 b 208 736 279 892 219 828 l 67 750 b 372 1008 90 911 210 1008 b 650 751 528 1008 650 915 b 592 585 650 681 628 621 l 494 486 b 425 336 439 429 425 414 l 425 275 m 265 83 b 357 175 265 133 307 175 b 449 83 407 175 449 133 b 357 -8 449 33 407 -8 b 265 83 307 -8 265 33 "},"@":{"ha":1111,"x_min":0,"x_max":0,"o":"m 586 674 b 385 414 456 674 385 547 b 483 303 385 346 414 303 b 674 551 596 303 674 446 b 586 674 674 617 644 674 m 738 371 b 731 336 733 357 731 344 b 771 303 731 313 743 303 b 942 575 849 303 942 428 b 578 917 942 793 774 917 b 169 489 340 917 169 729 b 585 67 169 243 351 67 b 908 207 717 67 842 117 l 1018 207 b 582 -25 940 67 760 -25 b 61 494 289 -25 61 204 b 576 1008 61 779 294 1008 b 1050 586 835 1008 1050 831 b 724 194 1050 350 854 194 b 636 283 676 194 638 226 l 631 283 b 458 194 589 239 526 194 b 268 413 340 194 268 292 b 579 782 268 594 390 782 b 728 676 643 782 703 751 l 731 676 l 753 756 l 854 756 "},"A":{"ha":978,"x_min":0,"x_max":0,"o":"m 435 983 l 556 983 l 976 0 l 821 0 l 722 243 l 254 243 l 157 0 l 1 0 m 674 360 l 490 811 l 488 811 l 301 360 "},"B":{"ha":875,"x_min":0,"x_max":0,"o":"m 126 983 l 468 983 b 767 738 639 983 767 904 b 597 521 767 625 697 554 l 597 518 b 810 274 715 510 810 406 b 464 0 810 97 656 0 l 126 0 m 260 575 l 442 575 b 625 722 543 575 625 615 b 469 867 625 800 576 867 l 260 867 m 260 117 l 456 117 b 668 283 536 117 668 144 b 457 458 668 400 586 458 l 260 458 "},"C":{"ha":978,"x_min":0,"x_max":0,"o":"m 811 771 b 574 883 756 843 664 883 b 207 483 353 883 207 707 b 574 100 207 276 344 100 b 831 232 686 100 772 150 l 943 147 b 571 -25 914 107 796 -25 b 65 483 258 -25 65 236 b 578 1008 65 789 275 1008 b 922 856 707 1008 843 960 "},"D":{"ha":1029,"x_min":0,"x_max":0,"o":"m 104 983 l 447 983 b 964 492 863 983 964 674 b 425 0 964 240 776 0 l 104 0 m 238 125 l 406 125 b 822 492 631 125 822 249 b 438 858 822 617 757 858 l 238 858 "},"E":{"ha":849,"x_min":0,"x_max":0,"o":"m 126 983 l 761 983 l 761 858 l 260 858 l 260 565 l 726 565 l 726 440 l 260 440 l 260 125 l 786 125 l 786 0 l 126 0 "},"F":{"ha":797,"x_min":0,"x_max":0,"o":"m 126 983 l 744 983 l 744 858 l 260 858 l 260 550 l 711 550 l 711 425 l 260 425 l 260 0 l 126 0 "},"G":{"ha":1081,"x_min":0,"x_max":0,"o":"m 964 550 l 964 65 b 592 -25 868 7 711 -25 b 65 492 258 -25 65 213 b 578 1008 65 783 278 1008 b 944 881 758 1008 868 960 l 850 779 b 578 883 769 857 676 883 b 207 492 353 883 207 707 b 589 100 207 269 372 100 b 831 151 682 100 771 118 l 831 425 l 613 425 l 613 550 "},"H":{"ha":1029,"x_min":0,"x_max":0,"o":"m 126 983 l 260 983 l 260 575 l 769 575 l 769 983 l 903 983 l 903 0 l 769 0 l 769 450 l 260 450 l 260 0 l 126 0 "},"I":{"ha":386,"x_min":0,"x_max":0,"o":"m 126 983 l 260 983 l 260 0 l 126 0 "},"J":{"ha":669,"x_min":0,"x_max":0,"o":"m 433 983 l 567 983 l 567 281 b 279 -25 567 33 389 -25 b 13 190 140 -25 39 46 l 143 219 b 279 100 158 146 206 100 b 433 324 411 100 433 213 "},"K":{"ha":900,"x_min":0,"x_max":0,"o":"m 126 983 l 260 983 l 260 558 l 271 558 l 706 983 l 892 983 l 417 529 l 924 0 l 729 0 l 271 492 l 260 492 l 260 0 l 126 0 "},"L":{"ha":721,"x_min":0,"x_max":0,"o":"m 126 983 l 260 983 l 260 125 l 711 125 l 711 0 l 126 0 "},"M":{"ha":1258,"x_min":0,"x_max":0,"o":"m 117 983 l 315 983 l 628 239 l 633 239 l 943 983 l 1142 983 l 1142 0 l 1008 0 l 1008 808 l 1006 808 l 674 0 l 585 0 l 253 808 l 250 808 l 250 0 l 117 0 "},"N":{"ha":1106,"x_min":0,"x_max":0,"o":"m 126 983 l 301 983 l 843 175 l 846 175 l 846 983 l 979 983 l 979 0 l 810 0 l 263 808 l 260 808 l 260 0 l 126 0 "},"O":{"ha":1156,"x_min":0,"x_max":0,"o":"m 578 -25 b 65 492 278 -25 65 200 b 578 1008 65 783 278 1008 b 1090 492 878 1008 1090 783 b 578 -25 1090 200 878 -25 m 578 100 b 949 492 803 100 949 276 b 578 883 949 707 803 883 b 207 492 353 883 207 707 b 578 100 207 276 353 100 "},"P":{"ha":824,"x_min":0,"x_max":0,"o":"m 126 983 l 472 983 b 788 708 724 983 788 832 b 472 433 788 585 724 433 l 260 433 l 260 0 l 126 0 m 260 550 l 435 550 b 646 708 540 550 646 575 b 435 867 646 842 540 867 l 260 867 "},"Q":{"ha":1156,"x_min":0,"x_max":0,"o":"m 1142 0 l 575 0 b 65 503 296 0 65 210 b 574 1008 65 792 286 1008 b 1075 517 850 1008 1075 797 b 850 119 1075 350 996 186 l 850 117 l 1142 117 m 569 125 b 933 511 785 125 933 296 b 569 883 933 719 779 883 b 207 514 364 883 207 718 b 569 125 207 299 356 125 "},"R":{"ha":849,"x_min":0,"x_max":0,"o":"m 126 983 l 472 983 b 788 708 724 983 788 832 b 546 449 788 583 694 465 l 825 0 l 658 0 l 408 433 l 260 433 l 260 0 l 126 0 m 260 550 l 435 550 b 646 708 540 550 646 575 b 435 867 646 842 540 867 l 260 867 "},"S":{"ha":772,"x_min":0,"x_max":0,"o":"m 156 206 b 364 100 203 133 285 100 b 560 264 451 100 560 156 b 75 733 560 490 75 350 b 408 1008 75 849 172 1008 b 692 896 515 1008 618 986 l 583 797 b 408 883 550 849 485 883 b 217 733 261 883 217 794 b 701 279 217 485 701 633 b 360 -25 701 89 549 -25 b 46 111 233 -25 113 18 "},"T":{"ha":797,"x_min":0,"x_max":0,"o":"m 332 858 l 15 858 l 15 983 l 782 983 l 782 858 l 465 858 l 465 0 l 332 0 "},"U":{"ha":978,"x_min":0,"x_max":0,"o":"m 242 983 l 242 381 b 489 100 242 258 303 100 b 736 381 675 100 736 258 l 736 983 l 869 983 l 869 360 b 489 -25 869 132 704 -25 b 108 360 274 -25 108 132 l 108 983 "},"V":{"ha":875,"x_min":0,"x_max":0,"o":"m -8 983 l 146 983 l 435 183 l 438 183 l 738 983 l 883 983 l 496 0 l 371 0 "},"W":{"ha":1336,"x_min":0,"x_max":0,"o":"m 1 983 l 140 983 l 357 197 l 360 197 l 592 983 l 744 983 l 976 197 l 979 197 l 1196 983 l 1335 983 l 1049 0 l 908 0 l 669 803 l 667 803 l 429 0 l 289 0 "},"X":{"ha":900,"x_min":0,"x_max":0,"o":"m 354 517 l 24 983 l 194 983 l 450 606 l 703 983 l 869 983 l 542 518 l 903 0 l 728 0 l 446 426 l 163 0 l -3 0 "},"Y":{"ha":850,"x_min":0,"x_max":0,"o":"m 358 419 l -14 983 l 157 983 l 425 551 l 701 983 l 864 983 l 492 419 l 492 0 l 358 0 "},"Z":{"ha":824,"x_min":0,"x_max":0,"o":"m 44 125 l 604 858 l 61 858 l 61 983 l 771 983 l 771 858 l 214 125 l 779 125 l 779 0 l 44 0 "},"[":{"ha":386,"x_min":0,"x_max":0,"o":"m 100 1017 l 342 1017 l 342 925 l 217 925 l 217 -125 l 342 -125 l 342 -217 l 100 -217 "},"\\":{"ha":540,"x_min":0,"x_max":0,"o":"m 0 1008 l 96 1044 l 540 -25 l 443 -61 "},"]":{"ha":386,"x_min":0,"x_max":0,"o":"m 44 -125 l 169 -125 l 169 925 l 44 925 l 44 1017 l 286 1017 l 286 -217 l 44 -217 "},"^":{"ha":925,"x_min":0,"x_max":0,"o":"m 407 983 l 518 983 l 814 383 l 699 383 l 463 874 l 226 383 l 111 383 "},"_":{"ha":694,"x_min":0,"x_max":0,"o":"m 0 -104 l 694 -104 l 694 -174 l 0 -174 "},"‘":{"ha":386,"x_min":0,"x_max":0,"o":"m 194 983 l 308 983 l 213 642 l 78 642 "},"a":{"ha":721,"x_min":0,"x_max":0,"o":"m 97 578 b 358 675 167 643 267 675 b 633 456 553 675 633 569 l 633 119 b 639 0 633 74 635 35 l 528 0 b 524 100 525 33 524 67 l 521 100 b 290 -17 465 15 390 -17 b 63 181 168 -17 63 53 b 425 408 63 350 225 408 l 517 408 l 517 436 b 360 575 517 504 467 575 b 172 500 264 575 218 535 m 450 317 b 188 190 332 317 188 296 b 329 83 188 115 243 83 b 517 275 468 83 517 186 l 517 317 "},"b":{"ha":849,"x_min":0,"x_max":0,"o":"m 94 1050 l 219 1050 l 219 564 l 222 564 b 451 675 267 632 357 675 b 786 329 654 675 786 526 b 451 -17 786 135 656 -17 b 222 94 363 -17 271 24 l 219 94 l 219 0 l 94 0 m 436 100 b 653 329 569 100 653 196 b 436 558 653 463 569 558 b 219 329 303 558 219 463 b 436 100 219 196 303 100 "},"c":{"ha":669,"x_min":0,"x_max":0,"o":"m 565 483 b 401 557 519 532 471 557 b 196 324 265 557 196 447 b 408 100 196 200 279 100 b 568 174 478 100 526 125 l 657 85 b 407 -17 592 13 503 -17 b 63 326 204 -17 63 124 b 407 674 63 529 201 674 b 660 569 503 674 594 640 "},"d":{"ha":849,"x_min":0,"x_max":0,"o":"m 754 0 l 629 0 l 629 94 l 626 94 b 397 -17 578 24 486 -17 b 63 329 193 -17 63 135 b 397 675 63 526 194 675 b 626 564 492 675 582 632 l 629 564 l 629 1050 l 754 1050 m 413 100 b 629 329 546 100 629 196 b 413 558 629 463 546 558 b 196 329 279 558 196 463 b 413 100 196 196 279 100 "},"e":{"ha":772,"x_min":0,"x_max":0,"o":"m 189 283 b 411 92 189 168 296 92 b 592 190 488 92 543 131 l 686 118 b 394 -17 617 28 521 -17 b 56 329 186 -17 56 133 b 396 675 56 526 199 675 b 717 328 628 675 717 497 l 717 283 m 583 383 b 393 575 581 493 519 575 b 189 383 269 575 189 471 "},"f":{"ha":463,"x_min":0,"x_max":0,"o":"m 143 550 l 1 550 l 1 658 l 143 658 l 143 806 b 368 1067 143 981 204 1067 b 461 1057 396 1067 426 1065 l 447 946 b 376 958 424 956 401 958 b 269 810 285 958 269 901 l 269 658 l 418 658 l 418 550 l 268 550 l 268 0 l 143 0 "},"g":{"ha":849,"x_min":0,"x_max":0,"o":"m 754 6 b 394 -333 754 -193 610 -333 b 72 -215 269 -333 165 -301 l 157 -110 b 392 -217 222 -179 296 -217 b 629 11 578 -217 629 -100 l 629 108 l 625 108 b 397 -8 578 29 488 -8 b 63 329 204 -8 61 138 b 397 675 63 524 193 675 b 626 564 486 675 578 635 l 629 564 l 629 658 l 754 658 m 413 558 b 196 329 279 558 196 463 b 413 108 196 196 279 108 b 629 329 546 108 629 196 b 413 558 629 463 546 558 "},"h":{"ha":772,"x_min":0,"x_max":0,"o":"m 94 1050 l 219 1050 l 219 557 l 222 557 b 439 675 254 626 338 675 b 678 424 567 675 678 599 l 678 0 l 553 0 l 553 389 b 403 558 553 513 482 558 b 219 339 299 558 219 492 l 219 0 l 94 0 "},"i":{"ha":333,"x_min":0,"x_max":0,"o":"m 104 658 l 229 658 l 229 0 l 104 0 m 75 894 b 167 986 75 944 117 986 b 258 894 217 986 258 944 b 167 803 258 844 217 803 b 75 894 117 803 75 844 "},"j":{"ha":333,"x_min":0,"x_max":0,"o":"m 229 658 l 229 -94 b 28 -333 229 -162 228 -333 b -53 -321 0 -333 -26 -331 l -39 -206 b 13 -217 -24 -211 -4 -217 b 104 -89 81 -217 104 -172 l 104 658 m 75 894 b 167 986 75 944 117 986 b 258 894 217 986 258 944 b 167 803 258 844 217 803 b 75 894 117 803 75 844 "},"k":{"ha":721,"x_min":0,"x_max":0,"o":"m 94 1050 l 219 1050 l 219 372 l 503 657 l 676 657 l 369 358 l 703 0 l 525 0 l 219 342 l 219 0 l 94 0 "},"l":{"ha":333,"x_min":0,"x_max":0,"o":"m 104 1050 l 229 1050 l 229 0 l 104 0 "},"m":{"ha":1183,"x_min":0,"x_max":0,"o":"m 94 658 l 211 658 l 211 556 l 214 556 b 425 675 226 594 307 675 b 631 553 522 675 589 633 b 839 675 674 633 760 675 b 1089 383 1042 675 1089 531 l 1089 0 l 964 0 l 964 367 b 822 558 964 467 943 558 b 654 360 701 558 654 476 l 654 0 l 529 0 l 529 344 b 390 558 529 469 511 558 b 219 342 300 558 219 490 l 219 0 l 94 0 "},"n":{"ha":772,"x_min":0,"x_max":0,"o":"m 94 658 l 219 658 l 219 557 l 222 557 b 439 675 254 626 338 675 b 678 424 567 675 678 599 l 678 0 l 553 0 l 553 389 b 403 558 553 513 482 558 b 219 339 299 558 219 492 l 219 0 l 94 0 "},"o":{"ha":825,"x_min":0,"x_max":0,"o":"m 196 329 b 413 100 196 196 279 100 b 629 329 546 100 629 196 b 413 558 629 463 546 558 b 196 329 279 558 196 463 m 63 329 b 413 675 63 521 217 675 b 763 329 608 675 763 521 b 413 -17 763 138 608 -17 b 63 329 217 -17 63 138 "},"p":{"ha":849,"x_min":0,"x_max":0,"o":"m 94 658 l 219 658 l 219 564 l 222 564 b 451 675 271 635 363 675 b 786 329 656 675 786 524 b 451 -17 786 132 654 -17 b 222 94 357 -17 267 26 l 219 94 l 219 -392 l 94 -392 m 436 558 b 219 329 303 558 219 463 b 436 100 219 196 303 100 b 653 329 569 100 653 196 b 436 558 653 463 569 558 "},"q":{"ha":849,"x_min":0,"x_max":0,"o":"m 754 -317 l 629 -317 l 629 94 l 626 94 b 397 -17 582 26 492 -17 b 63 329 194 -17 63 132 b 397 675 63 524 193 675 b 626 564 486 675 578 635 l 629 564 l 629 658 l 754 658 m 413 558 b 196 329 279 558 196 463 b 413 100 196 196 279 100 b 629 329 546 100 629 196 b 413 558 629 463 546 558 "},"r":{"ha":514,"x_min":0,"x_max":0,"o":"m 94 658 l 219 658 l 219 557 l 222 557 b 419 675 254 626 338 675 b 475 667 439 675 458 672 l 469 532 b 408 542 449 538 428 542 b 219 331 286 542 219 475 l 219 0 l 94 0 "},"s":{"ha":617,"x_min":0,"x_max":0,"o":"m 444 493 b 310 558 415 529 372 558 b 200 485 251 558 200 532 b 368 382 200 406 313 394 b 560 190 476 356 560 314 b 293 -17 560 42 424 -17 b 39 100 185 -17 104 11 l 133 178 b 293 100 174 138 221 100 b 426 183 357 100 426 126 b 268 285 426 258 322 272 b 67 472 161 311 67 346 b 317 675 67 610 193 675 b 542 567 404 675 494 644 "},"t":{"ha":514,"x_min":0,"x_max":0,"o":"m 447 550 l 268 550 l 268 251 b 363 100 268 178 268 100 b 451 119 392 100 426 104 l 451 6 b 339 -17 422 -11 364 -17 b 143 207 146 -17 143 101 l 143 550 l -1 550 l -1 658 l 143 658 l 143 843 l 268 843 l 268 658 l 447 658 "},"u":{"ha":772,"x_min":0,"x_max":0,"o":"m 678 0 l 553 0 l 553 101 l 550 101 b 333 -17 518 32 435 -17 b 94 235 206 -17 94 60 l 94 658 l 219 658 l 219 269 b 369 100 219 146 290 100 b 553 319 474 100 553 167 l 553 658 l 678 658 "},"v":{"ha":694,"x_min":0,"x_max":0,"o":"m 15 658 l 160 658 l 357 154 l 546 658 l 679 658 l 421 0 l 283 0 "},"w":{"ha":1054,"x_min":0,"x_max":0,"o":"m 15 658 l 156 658 l 304 167 l 307 167 l 464 658 l 596 658 l 763 167 l 765 167 l 907 658 l 1039 658 l 826 0 l 700 0 l 526 492 l 524 492 l 367 0 l 232 0 "},"x":{"ha":721,"x_min":0,"x_max":0,"o":"m 275 351 l 42 658 l 203 658 l 363 425 l 519 658 l 671 658 l 446 351 l 713 0 l 551 0 l 357 276 l 163 0 l 8 0 "},"y":{"ha":694,"x_min":0,"x_max":0,"o":"m 15 658 l 160 658 l 356 144 l 358 144 l 544 658 l 679 658 l 367 -142 b 142 -333 322 -256 279 -333 b 31 -315 104 -333 65 -329 l 46 -201 b 121 -217 69 -211 96 -217 b 249 -108 200 -217 224 -174 l 289 -4 "},"z":{"ha":643,"x_min":0,"x_max":0,"o":"m 49 113 l 422 550 l 61 550 l 61 658 l 575 658 l 575 547 l 199 108 l 594 108 l 594 0 l 49 0 "},"{":{"ha":463,"x_min":0,"x_max":0,"o":"m 422 917 l 360 917 b 289 796 306 917 289 856 l 289 586 b 172 401 293 457 204 410 l 172 397 b 289 211 204 393 293 353 l 289 3 b 360 -117 289 -54 306 -117 l 422 -117 l 422 -217 l 318 -217 b 172 -4 249 -217 172 -153 l 172 182 b 56 344 168 283 118 344 l 56 453 b 172 615 118 453 168 514 l 172 835 b 318 1017 172 953 249 1017 l 422 1017 "},"|":{"ha":308,"x_min":0,"x_max":0,"o":"m 208 1042 l 208 -347 l 100 -347 l 100 1042 "},"}":{"ha":463,"x_min":0,"x_max":0,"o":"m 40 -117 l 103 -117 b 174 4 157 -117 174 -56 l 174 214 b 290 399 169 343 258 390 l 290 403 b 174 589 258 407 169 447 l 174 797 b 103 917 174 854 157 917 l 40 917 l 40 1017 l 144 1017 b 290 804 214 1017 290 953 l 290 618 b 407 456 290 517 344 456 l 407 347 b 290 185 344 347 290 286 l 290 -35 b 144 -217 290 -153 214 -217 l 40 -217 "},"~":{"ha":925,"x_min":0,"x_max":0,"o":"m 792 439 b 614 317 736 344 675 317 b 453 367 560 317 506 342 b 306 417 400 392 350 417 b 189 317 246 417 213 364 l 133 403 b 318 525 176 475 229 525 b 475 475 374 525 426 500 b 613 424 524 450 569 424 b 736 525 657 424 697 449 "},"¡":{"ha":386,"x_min":0,"x_max":0,"o":"m 129 392 l 263 392 l 263 -308 l 129 -308 m 285 592 b 193 500 285 542 243 500 b 101 592 143 500 101 542 b 193 683 101 642 143 683 b 285 592 243 683 285 642 "},"¢":{"ha":772,"x_min":0,"x_max":0,"o":"m 475 92 b 622 164 533 93 583 118 l 704 83 b 475 -17 650 22 568 -10 l 475 -108 l 400 -108 l 400 -17 b 100 329 215 1 100 147 b 400 675 100 517 215 649 l 400 767 l 475 767 l 475 675 b 707 569 563 671 651 635 l 617 488 b 475 567 582 529 528 565 m 400 567 b 225 332 285 549 225 444 b 400 92 225 218 289 113 "},"£":{"ha":772,"x_min":0,"x_max":0,"o":"m 600 456 l 375 456 l 375 117 l 717 117 l 717 0 l 100 0 l 100 117 l 242 117 l 242 456 l 108 456 l 108 556 l 242 556 l 242 694 b 547 1000 242 856 344 1000 b 782 914 635 1000 718 975 l 697 817 b 561 883 656 857 607 883 b 375 661 464 883 375 824 l 375 556 l 600 556 "},"⁄":{"ha":232,"x_min":0,"x_max":0,"o":"m -147 -44 l -231 0 l 379 1028 l 463 983 "},"¥":{"ha":772,"x_min":0,"x_max":0,"o":"m 328 258 l 90 258 l 90 350 l 328 350 l 328 424 l 304 463 l 90 463 l 90 554 l 249 554 l -7 983 l 132 983 l 381 544 l 638 983 l 779 983 l 521 554 l 682 554 l 682 463 l 468 463 l 444 424 l 444 350 l 682 350 l 682 258 l 444 258 l 444 0 l 328 0 "},"ƒ":{"ha":772,"x_min":0,"x_max":0,"o":"m 624 490 l 438 490 l 336 -21 b 118 -200 315 -129 231 -200 b -17 -165 65 -200 22 -185 l 36 -67 b 111 -83 65 -78 90 -83 b 218 40 192 -83 208 -12 l 306 490 l 156 490 l 156 590 l 325 590 l 363 786 b 575 1000 388 914 471 1000 b 738 967 635 1000 694 990 l 682 863 b 601 883 661 876 642 883 b 483 744 554 883 501 849 l 457 590 l 624 590 "},"§":{"ha":772,"x_min":0,"x_max":0,"o":"m 554 806 b 414 892 531 864 478 890 b 276 783 342 892 276 858 b 686 388 276 619 686 638 b 571 206 686 307 642 243 b 661 38 628 167 661 110 b 369 -200 661 -122 515 -200 b 86 -32 247 -200 136 -150 l 207 25 b 379 -83 232 -51 300 -83 b 519 38 450 -83 519 -49 b 110 407 519 181 110 193 b 246 617 110 518 167 578 b 135 781 179 654 135 707 b 417 1008 135 931 279 1008 b 671 869 517 1008 625 968 m 338 556 b 235 446 288 536 235 507 b 371 304 235 361 311 333 l 478 253 b 561 375 521 279 561 326 b 447 503 561 443 499 476 "},"¤":{"ha":772,"x_min":0,"x_max":0,"o":"m 108 849 l 176 782 b 386 850 242 828 314 850 b 596 782 458 850 532 828 l 664 849 l 743 771 l 675 703 b 743 493 721 640 743 567 b 675 283 743 419 721 346 l 743 215 l 664 136 l 596 204 b 386 136 535 158 461 136 b 176 204 313 136 239 160 l 108 136 l 29 215 l 97 283 b 29 493 53 344 29 419 b 97 703 29 568 53 642 l 29 771 m 138 493 b 386 244 138 356 249 244 b 635 493 524 244 635 356 b 386 742 635 631 524 742 b 138 493 249 742 138 631 "},"'":{"ha":386,"x_min":0,"x_max":0,"o":"m 247 642 l 139 642 l 139 983 l 247 983 "},"“":{"ha":721,"x_min":0,"x_max":0,"o":"m 257 642 l 122 642 l 239 983 l 353 983 m 503 642 l 368 642 l 485 983 l 599 983 "},"«":{"ha":694,"x_min":0,"x_max":0,"o":"m 65 338 l 267 638 l 353 581 l 190 338 l 354 94 l 268 38 m 340 338 l 542 638 l 628 581 l 465 338 l 629 94 l 543 38 "},"‹":{"ha":438,"x_min":0,"x_max":0,"o":"m 75 338 l 276 638 l 363 581 l 200 338 l 364 94 l 278 38 "},"›":{"ha":438,"x_min":0,"x_max":0,"o":"m 75 94 l 238 338 l 74 581 l 160 638 l 363 338 l 161 38 "},"ﬁ":{"ha":772,"x_min":0,"x_max":0,"o":"m 542 658 l 667 658 l 667 0 l 542 0 m 514 893 b 606 985 514 943 556 985 b 697 893 656 985 697 943 b 606 801 697 843 656 801 b 514 893 556 801 514 843 m 143 550 l 1 550 l 1 658 l 143 658 l 143 806 b 368 1067 143 981 204 1067 b 461 1057 396 1067 426 1065 l 447 946 b 376 958 424 956 401 958 b 269 810 285 958 269 901 l 269 658 l 418 658 l 418 550 l 268 550 l 268 0 l 143 0 "},"ﬂ":{"ha":772,"x_min":0,"x_max":0,"o":"m 543 1050 l 668 1050 l 668 0 l 543 0 m 143 550 l 1 550 l 1 658 l 143 658 l 143 806 b 368 1067 143 981 204 1067 b 461 1057 396 1067 426 1065 l 447 946 b 376 958 424 956 401 958 b 269 810 285 958 269 901 l 269 658 l 418 658 l 418 550 l 268 550 l 268 0 l 143 0 "},"–":{"ha":694,"x_min":0,"x_max":0,"o":"m 694 283 l 0 283 l 0 392 l 694 392 "},"†":{"ha":772,"x_min":0,"x_max":0,"o":"m 324 593 l 49 593 l 49 701 l 324 701 l 324 983 l 449 983 l 449 701 l 724 701 l 724 593 l 449 593 l 449 -175 l 324 -175 "},"‡":{"ha":772,"x_min":0,"x_max":0,"o":"m 324 92 l 57 92 l 57 200 l 324 200 l 324 625 l 57 625 l 57 733 l 324 733 l 324 983 l 449 983 l 449 733 l 715 733 l 715 625 l 449 625 l 449 200 l 715 200 l 715 92 l 449 92 l 449 -175 l 324 -175 "},"·":{"ha":386,"x_min":0,"x_max":0,"o":"m 101 421 b 193 513 101 471 143 513 b 285 421 243 513 285 471 b 193 329 285 371 243 329 b 101 421 143 329 101 371 "},"¶":{"ha":833,"x_min":0,"x_max":0,"o":"m 361 442 b 71 699 192 442 71 554 b 388 983 71 879 192 983 l 733 983 l 733 -175 l 625 -175 l 625 892 l 469 892 l 469 -175 l 361 -175 "},"•":{"ha":694,"x_min":0,"x_max":0,"o":"m 101 492 b 347 738 101 628 211 738 b 593 492 483 738 593 628 b 347 246 593 356 483 246 b 101 492 211 246 101 356 "},"‚":{"ha":386,"x_min":0,"x_max":0,"o":"m 192 -183 l 78 -183 l 174 158 l 308 158 "},"„":{"ha":721,"x_min":0,"x_max":0,"o":"m 236 -183 l 122 -183 l 218 158 l 353 158 m 482 -183 l 368 -183 l 464 158 l 599 158 "},"”":{"ha":721,"x_min":0,"x_max":0,"o":"m 236 642 l 122 642 l 218 983 l 353 983 m 482 642 l 368 642 l 464 983 l 599 983 "},"»":{"ha":694,"x_min":0,"x_max":0,"o":"m 629 338 l 428 38 l 342 94 l 504 338 l 340 581 l 426 638 m 354 338 l 153 38 l 67 94 l 229 338 l 65 581 l 151 638 "},"…":{"ha":1389,"x_min":0,"x_max":0,"o":"m 232 -8 b 140 83 182 -8 140 33 b 232 175 140 133 182 175 b 324 83 282 175 324 133 b 232 -8 324 33 282 -8 m 694 -8 b 603 83 644 -8 603 33 b 694 175 603 133 644 175 b 786 83 744 175 786 133 b 694 -8 786 33 744 -8 m 1157 -8 b 1065 83 1107 -8 1065 33 b 1157 175 1065 133 1107 175 b 1249 83 1207 175 1249 133 b 1157 -8 1249 33 1207 -8 "},"‰":{"ha":1467,"x_min":0,"x_max":0,"o":"m 704 -25 b 479 201 579 -25 479 76 b 704 426 479 326 579 426 b 931 201 829 426 931 326 b 704 -25 931 76 829 -25 m 704 75 b 831 201 774 75 831 132 b 704 326 831 271 774 326 b 579 201 635 326 579 271 b 704 75 579 132 635 75 m 988 201 b 1213 426 988 326 1088 426 b 1439 201 1338 426 1439 326 b 1213 -25 1439 76 1338 -25 b 988 201 1088 -25 988 76 m 1213 75 b 1339 201 1282 75 1339 132 b 1213 326 1339 271 1282 326 b 1088 201 1143 326 1088 271 b 1213 75 1088 132 1143 75 m 28 775 b 253 1000 28 900 128 1000 b 479 775 378 1000 479 900 b 253 549 479 650 378 549 b 28 775 128 549 28 650 m 128 775 b 253 649 128 706 183 649 b 379 775 322 649 379 706 b 253 900 379 844 322 900 b 128 775 183 900 128 844 m 215 -43 l 129 0 l 747 1028 l 831 986 "},"¿":{"ha":694,"x_min":0,"x_max":0,"o":"m 403 400 l 403 315 b 304 124 403 214 376 193 b 178 -69 246 67 178 14 b 325 -217 178 -154 243 -217 b 486 -61 415 -217 475 -153 l 628 -75 b 322 -333 604 -236 485 -333 b 44 -76 167 -333 44 -240 b 103 90 44 -6 67 54 l 200 189 b 269 339 256 246 269 261 l 269 400 m 429 592 b 338 500 429 542 388 500 b 246 592 288 500 246 542 b 338 683 246 642 288 683 b 429 592 388 683 429 642 "},"`":{"ha":333,"x_min":0,"x_max":0,"o":"m 258 783 l 143 783 l -64 983 l 114 983 "},"´":{"ha":333,"x_min":0,"x_max":0,"o":"m 219 983 l 397 983 l 190 783 l 75 783 "},"ˆ":{"ha":333,"x_min":0,"x_max":0,"o":"m 269 783 l 167 917 l 64 783 l -62 783 l 93 983 l 240 983 l 396 783 "},"˜":{"ha":333,"x_min":0,"x_max":0,"o":"m -67 800 b 74 944 -54 872 -8 944 b 190 913 115 944 153 928 b 265 889 218 901 236 889 b 333 950 303 889 324 917 l 400 950 b 269 806 389 879 351 806 b 157 835 231 806 192 821 b 65 861 129 846 97 861 b 0 800 31 861 10 831 "},"¯":{"ha":333,"x_min":0,"x_max":0,"o":"m 367 833 l -33 833 l -33 925 l 367 925 "},"˘":{"ha":333,"x_min":0,"x_max":0,"o":"m 25 975 b 168 875 38 904 100 875 b 311 975 236 875 299 904 l 385 975 b 167 783 376 849 289 783 b -51 975 44 783 -43 849 "},"˙":{"ha":333,"x_min":0,"x_max":0,"o":"m 167 825 b 81 913 117 825 81 863 b 167 992 81 958 124 992 b 253 913 210 992 253 958 b 167 825 253 863 217 825 "},"¨":{"ha":333,"x_min":0,"x_max":0,"o":"m 25 992 b 111 913 68 992 111 958 b 25 825 111 863 75 825 b -61 913 -25 825 -61 863 b 25 992 -61 958 -18 992 m 308 992 b 394 913 351 992 394 958 b 308 825 394 863 358 825 b 222 913 258 825 222 863 b 308 992 222 958 265 992 "},"˚":{"ha":333,"x_min":0,"x_max":0,"o":"m 25 904 b 167 1042 25 982 92 1042 b 308 906 244 1042 310 982 b 167 768 310 828 244 768 b 25 904 92 768 25 828 m 250 904 b 167 983 250 950 211 983 b 83 904 122 983 83 950 b 167 826 83 860 124 826 b 250 904 210 826 250 860 "},"¸":{"ha":333,"x_min":0,"x_max":0,"o":"m 33 -229 b 142 -250 68 -243 106 -250 b 226 -192 175 -250 226 -239 b 96 -146 226 -121 147 -131 l 67 -121 l 151 0 l 219 0 l 158 -85 l 199 -85 b 326 -185 261 -83 326 -115 b 153 -317 326 -283 232 -317 b 7 -285 103 -317 53 -307 "},"˝":{"ha":333,"x_min":0,"x_max":0,"o":"m 75 983 l 251 983 l 44 783 l -69 783 m 310 983 l 486 983 l 279 783 l 165 783 "},"˛":{"ha":333,"x_min":0,"x_max":0,"o":"m 299 -258 b 172 -307 261 -292 215 -307 b 35 -189 100 -307 38 -265 b 164 10 35 -111 106 -36 l 239 10 b 135 -164 199 -29 135 -104 b 203 -224 139 -208 169 -224 b 268 -197 226 -224 250 -212 "},"ˇ":{"ha":333,"x_min":0,"x_max":0,"o":"m -62 983 l 58 983 l 167 850 l 269 983 l 396 983 l 240 783 l 93 783 "},"—":{"ha":1389,"x_min":0,"x_max":0,"o":"m 1389 283 l 0 283 l 0 392 l 1389 392 "},"Æ":{"ha":1338,"x_min":0,"x_max":0,"o":"m 625 983 l 1258 983 l 1258 858 l 849 858 l 849 565 l 1233 565 l 1233 440 l 849 440 l 849 125 l 1275 125 l 1275 0 l 715 0 l 715 239 l 293 239 l 153 0 l -11 0 m 715 364 l 715 858 l 689 858 l 365 364 "},"ª":{"ha":468,"x_min":0,"x_max":0,"o":"m 336 590 l 336 651 l 333 653 b 194 582 308 600 260 582 b 47 701 119 582 47 621 b 319 844 47 839 215 844 l 336 844 l 336 858 b 242 925 336 894 303 925 b 118 879 196 925 151 910 l 69 942 b 240 1000 114 981 179 1000 b 428 863 401 1000 428 933 l 428 590 m 333 778 b 139 707 254 778 139 778 b 222 657 139 668 179 657 b 336 751 300 657 336 696 l 336 778 "},"Ł":{"ha":721,"x_min":0,"x_max":0,"o":"m 126 290 l 26 203 l 26 326 l 126 413 l 126 983 l 260 983 l 260 528 l 560 789 l 560 665 l 260 406 l 260 125 l 711 125 l 711 0 l 126 0 "},"Ø":{"ha":1156,"x_min":0,"x_max":0,"o":"m 342 182 b 578 100 404 131 485 100 b 949 492 803 100 949 276 b 863 750 949 590 918 681 m 807 806 b 578 883 746 854 668 883 b 207 492 353 883 207 707 b 288 240 207 396 236 308 m 76 11 l 194 140 b 65 492 113 232 65 354 b 578 1008 65 783 278 1008 b 897 903 701 1008 811 969 l 1013 1028 l 1071 975 l 956 850 b 1090 492 1040 760 1090 633 b 578 -25 1090 200 878 -25 b 253 85 450 -25 339 15 l 136 -42 "},"Œ":{"ha":1363,"x_min":0,"x_max":0,"o":"m 1282 0 l 649 0 b 81 492 286 0 81 206 b 649 983 81 789 294 983 l 1265 983 l 1265 858 l 857 858 l 857 565 l 1240 565 l 1240 440 l 857 440 l 857 125 l 1282 125 m 724 858 l 639 858 b 222 492 367 858 222 689 b 639 125 222 283 367 125 l 724 125 "},"º":{"ha":536,"x_min":0,"x_max":0,"o":"m 268 1000 b 496 790 407 1000 496 917 b 268 582 496 664 407 582 b 40 790 129 582 40 664 b 268 1000 40 917 129 1000 m 268 917 b 140 790 186 917 140 867 b 268 665 140 714 186 665 b 396 790 350 665 396 714 b 268 917 396 867 350 917 "},"æ":{"ha":1183,"x_min":0,"x_max":0,"o":"m 1129 283 l 639 283 b 838 83 639 178 711 83 b 1008 188 917 83 975 128 l 1110 111 b 835 -25 1033 22 954 -25 b 578 110 729 -25 636 11 b 308 -25 517 26 431 -25 b 54 188 131 -25 54 83 b 328 383 54 343 197 383 l 522 383 l 522 404 b 357 575 522 499 465 575 b 171 500 281 575 229 547 l 93 579 b 356 675 163 642 263 675 b 592 569 446 675 540 647 b 822 675 635 618 701 675 b 1129 342 1074 675 1129 454 m 325 283 b 188 188 229 283 188 253 b 325 75 188 124 250 75 b 522 264 428 75 522 146 l 522 283 m 996 383 b 821 567 993 485 947 567 b 639 383 704 567 639 485 "},"ı":{"ha":333,"x_min":0,"x_max":0,"o":"m 104 658 l 229 658 l 229 0 l 104 0 "},"ł":{"ha":333,"x_min":0,"x_max":0,"o":"m 104 414 l -4 306 l -4 431 l 104 539 l 104 1050 l 229 1050 l 229 664 l 338 771 l 338 646 l 229 539 l 229 0 l 104 0 "},"ø":{"ha":825,"x_min":0,"x_max":0,"o":"m 554 510 b 413 558 518 540 471 558 b 196 329 279 558 196 463 b 238 188 196 274 210 225 m 57 6 l 150 100 b 63 329 96 158 63 240 b 413 675 63 521 217 675 b 638 594 500 675 579 644 l 742 699 l 792 649 l 688 543 b 763 329 735 485 763 410 b 413 -17 763 138 608 -17 b 204 51 335 -17 263 8 l 108 -44 m 289 138 b 413 100 322 113 364 100 b 629 329 546 100 629 196 b 599 453 629 375 619 418 "},"œ":{"ha":1286,"x_min":0,"x_max":0,"o":"m 1206 119 b 929 -17 1142 28 1049 -17 b 660 111 822 -17 715 21 b 389 -17 625 64 560 -17 b 54 329 176 -17 54 133 b 396 675 54 528 193 675 b 663 549 510 675 596 635 b 922 675 707 607 785 675 b 1232 344 1110 675 1232 540 l 1232 283 l 733 283 b 932 92 733 186 792 92 b 1103 188 1011 92 1067 129 m 1099 383 b 919 575 1096 476 1038 575 b 733 383 801 575 733 465 m 608 329 b 400 567 608 449 547 567 b 188 329 258 567 188 461 b 389 92 188 200 258 92 b 608 329 558 92 608 210 "},"ß":{"ha":849,"x_min":0,"x_max":0,"o":"m 94 707 b 407 1067 94 903 147 1067 b 689 815 561 1067 689 979 b 535 600 689 701 629 628 l 535 597 b 771 306 644 581 771 493 b 435 -17 771 107 629 -17 b 336 -4 401 -17 368 -12 l 336 108 b 410 100 360 103 385 100 b 638 317 546 100 638 179 b 396 532 638 464 532 532 l 376 532 l 376 649 l 399 649 b 556 800 493 649 556 707 b 400 950 556 913 474 950 b 219 722 261 950 219 853 l 219 0 l 94 0 "},"¹":{"ha":501,"x_min":0,"x_max":0,"o":"m 214 900 l 96 800 l 38 864 l 215 1000 l 314 1000 l 314 401 l 214 401 "},"¬":{"ha":925,"x_min":0,"x_max":0,"o":"m 833 196 l 725 196 l 725 475 l 92 475 l 92 583 l 833 583 "},"µ":{"ha":772,"x_min":0,"x_max":0,"o":"m 94 658 l 219 658 l 219 269 b 369 100 219 146 290 100 b 553 319 474 100 553 167 l 553 658 l 678 658 l 678 0 l 553 0 l 553 101 l 550 101 b 333 -17 518 32 435 -17 b 219 8 292 -17 253 -8 l 219 -317 l 94 -317 "},"™":{"ha":1389,"x_min":0,"x_max":0,"o":"m 219 892 l 47 892 l 47 983 l 500 983 l 500 892 l 328 892 l 328 411 l 219 411 m 610 983 l 775 983 l 929 544 l 933 544 l 1088 983 l 1253 983 l 1253 411 l 1144 411 l 1144 889 l 1142 889 l 975 411 l 888 411 l 721 889 l 718 889 l 718 411 l 610 411 "},"Ð":{"ha":1029,"x_min":0,"x_max":0,"o":"m 104 467 l 4 467 l 4 558 l 104 558 l 104 983 l 447 983 b 964 492 863 983 964 674 b 425 0 964 240 776 0 l 104 0 m 238 125 l 406 125 b 822 492 631 125 822 249 b 438 858 822 617 757 858 l 238 858 l 238 558 l 563 558 l 563 467 l 238 467 "},"½":{"ha":1158,"x_min":0,"x_max":0,"o":"m 219 900 l 101 800 l 43 864 l 221 1000 l 319 1000 l 319 401 l 219 401 m 686 106 l 935 328 b 997 429 963 353 997 386 b 907 507 997 478 957 507 b 813 425 854 507 817 475 l 696 433 b 907 599 706 542 792 599 b 1114 432 1022 599 1114 544 b 1015 260 1114 358 1072 308 l 819 92 l 1115 92 l 1115 0 l 686 0 m 804 1028 l 888 983 l 278 -44 l 194 0 "},"±":{"ha":925,"x_min":0,"x_max":0,"o":"m 92 546 l 408 546 l 408 772 l 517 772 l 517 546 l 833 546 l 833 438 l 517 438 l 517 229 l 408 229 l 408 438 l 92 438 m 92 179 l 833 179 l 833 71 l 92 71 "},"Þ":{"ha":824,"x_min":0,"x_max":0,"o":"m 126 983 l 260 983 l 260 782 l 472 782 b 788 507 724 782 788 631 b 472 232 788 383 724 232 l 260 232 l 260 0 l 126 0 m 260 349 l 435 349 b 646 507 540 349 646 374 b 435 665 646 640 540 665 l 260 665 "},"¼":{"ha":1158,"x_min":0,"x_max":0,"o":"m 935 131 l 663 131 l 663 211 l 917 599 l 1026 599 l 1026 222 l 1113 222 l 1113 131 l 1026 131 l 1026 0 l 935 0 m 926 482 l 924 482 l 763 222 l 926 222 m 821 1028 l 904 983 l 294 -44 l 211 0 m 222 900 l 104 800 l 46 864 l 224 1000 l 322 1000 l 322 401 l 222 401 "},"÷":{"ha":925,"x_min":0,"x_max":0,"o":"m 833 474 l 833 365 l 92 365 l 92 474 m 371 653 b 463 744 371 703 413 744 b 554 653 513 744 554 703 b 463 561 554 603 513 561 b 371 653 413 561 371 603 m 371 186 b 463 278 371 236 413 278 b 554 186 513 278 554 236 b 463 94 554 136 513 94 b 371 186 413 94 371 136 "},"¦":{"ha":308,"x_min":0,"x_max":0,"o":"m 208 938 l 208 451 l 100 451 l 100 938 m 208 243 l 208 -243 l 100 -243 l 100 243 "},"°":{"ha":556,"x_min":0,"x_max":0,"o":"m 71 793 b 278 1000 71 907 164 1000 b 485 793 392 1000 485 907 b 278 586 485 679 392 586 b 71 793 164 586 71 679 m 163 793 b 278 678 163 729 214 678 b 393 793 342 678 393 729 b 278 908 393 857 342 908 b 163 793 214 908 163 857 "},"þ":{"ha":849,"x_min":0,"x_max":0,"o":"m 94 1050 l 219 1050 l 219 564 l 222 564 b 451 675 267 632 357 675 b 786 329 654 675 786 526 b 451 -17 786 135 656 -17 b 222 94 363 -17 271 24 l 219 94 l 219 -317 l 94 -317 m 436 100 b 653 329 569 100 653 196 b 436 558 653 463 569 558 b 219 329 303 558 219 463 b 436 100 219 196 303 100 "},"¾":{"ha":1158,"x_min":0,"x_max":0,"o":"m 963 131 l 690 131 l 690 211 l 944 599 l 1054 599 l 1054 222 l 1140 222 l 1140 131 l 1054 131 l 1054 0 l 963 0 m 963 482 l 960 482 l 799 222 l 963 222 m 876 1028 l 960 983 l 350 -44 l 267 0 m 193 754 l 218 754 b 343 833 281 754 343 763 b 253 908 343 878 306 908 b 157 846 208 908 172 886 l 42 874 b 247 1000 69 961 153 1000 b 451 844 357 1000 451 947 b 343 711 451 781 410 726 l 343 708 b 467 565 424 699 467 638 b 251 393 467 454 365 393 b 32 531 146 393 60 433 l 147 558 b 251 485 161 513 193 485 b 358 574 308 485 358 521 b 217 663 358 650 283 664 l 193 663 "},"²":{"ha":501,"x_min":0,"x_max":0,"o":"m 36 507 l 285 729 b 347 831 313 754 347 788 b 257 908 347 879 307 908 b 163 826 204 908 167 876 l 46 835 b 257 1000 56 943 142 1000 b 464 833 372 1000 464 946 b 365 661 464 760 422 710 l 169 493 l 465 493 l 465 401 l 36 401 "},"®":{"ha":1111,"x_min":0,"x_max":0,"o":"m 357 790 l 585 790 b 793 613 726 790 793 726 b 651 450 793 510 732 460 l 806 200 l 692 200 l 544 442 l 465 442 l 465 200 l 357 200 m 465 533 l 544 533 b 685 617 611 533 685 538 b 544 699 685 696 611 700 l 465 699 m 39 492 b 556 1008 39 776 271 1008 b 1072 492 840 1008 1072 776 b 556 -25 1072 207 840 -25 b 39 492 271 -25 39 207 m 131 492 b 556 67 131 257 321 67 b 981 492 790 67 981 257 b 556 917 981 726 790 917 b 131 492 321 917 131 726 "},"−":{"ha":925,"x_min":0,"x_max":0,"o":"m 833 475 l 833 367 l 92 367 l 92 475 "},"ð":{"ha":825,"x_min":0,"x_max":0,"o":"m 660 989 l 504 913 b 763 374 647 760 763 590 b 413 -17 763 139 633 -17 b 63 329 217 -17 63 138 b 413 675 63 521 217 675 b 586 606 474 675 542 657 l 589 608 b 389 858 538 700 465 783 l 240 786 l 175 850 l 322 924 l 204 1022 l 314 1086 l 438 978 l 588 1050 m 196 329 b 413 100 196 196 279 100 b 629 329 546 100 629 196 b 413 558 629 463 546 558 b 196 329 279 558 196 463 "},"×":{"ha":925,"x_min":0,"x_max":0,"o":"m 386 421 l 92 715 l 168 792 l 463 497 l 758 792 l 833 715 l 539 421 l 833 126 l 756 50 l 463 344 l 169 50 l 94 128 "},"³":{"ha":501,"x_min":0,"x_max":0,"o":"m 194 754 l 219 754 b 344 833 282 754 344 763 b 254 908 344 878 307 908 b 158 846 210 908 174 886 l 43 874 b 249 1000 71 961 154 1000 b 453 844 358 1000 453 947 b 344 711 453 781 411 726 l 344 708 b 468 565 425 699 468 638 b 253 393 468 454 367 393 b 33 531 147 393 61 433 l 149 558 b 253 485 163 513 194 485 b 360 574 310 485 360 521 b 218 663 360 650 285 664 l 194 663 "},"©":{"ha":1111,"x_min":0,"x_max":0,"o":"m 39 492 b 556 1008 39 776 271 1008 b 1072 492 840 1008 1072 776 b 556 -25 1072 207 840 -25 b 39 492 271 -25 39 207 m 818 397 b 560 179 789 265 693 179 b 251 496 367 179 251 308 b 556 813 251 686 360 813 b 818 600 693 813 796 740 l 711 600 b 557 713 693 668 649 713 b 360 499 425 713 360 631 b 560 279 360 378 433 279 b 711 397 649 279 696 325 m 131 492 b 556 67 131 257 321 67 b 981 492 790 67 981 257 b 556 917 981 726 790 917 b 131 492 321 917 131 726 "},"Á":{"ha":978,"x_min":0,"x_max":0,"o":"m 435 983 l 556 983 l 976 0 l 821 0 l 722 243 l 254 243 l 157 0 l 1 0 m 674 360 l 490 811 l 488 811 l 301 360 m 542 1239 l 719 1239 l 513 1039 l 397 1039 "},"Â":{"ha":978,"x_min":0,"x_max":0,"o":"m 435 983 l 556 983 l 976 0 l 821 0 l 722 243 l 254 243 l 157 0 l 1 0 m 674 360 l 490 811 l 488 811 l 301 360 m 592 1039 l 489 1172 l 386 1039 l 260 1039 l 415 1239 l 563 1239 l 718 1039 "},"Ä":{"ha":978,"x_min":0,"x_max":0,"o":"m 435 983 l 556 983 l 976 0 l 821 0 l 722 243 l 254 243 l 157 0 l 1 0 m 674 360 l 490 811 l 488 811 l 301 360 m 347 1247 b 433 1168 390 1247 433 1214 b 347 1081 433 1118 397 1081 b 261 1168 297 1081 261 1118 b 347 1247 261 1214 304 1247 m 631 1247 b 717 1168 674 1247 717 1214 b 631 1081 717 1118 681 1081 b 544 1168 581 1081 544 1118 b 631 1247 544 1214 588 1247 "},"À":{"ha":978,"x_min":0,"x_max":0,"o":"m 435 983 l 556 983 l 976 0 l 821 0 l 722 243 l 254 243 l 157 0 l 1 0 m 674 360 l 490 811 l 488 811 l 301 360 m 581 1039 l 465 1039 l 258 1239 l 436 1239 "},"Å":{"ha":978,"x_min":0,"x_max":0,"o":"m 435 983 l 556 983 l 976 0 l 821 0 l 722 243 l 254 243 l 157 0 l 1 0 m 674 360 l 490 811 l 488 811 l 301 360 m 347 1146 b 489 1283 347 1224 414 1283 b 631 1147 567 1283 632 1224 b 489 1010 632 1069 567 1010 b 347 1146 414 1010 347 1069 m 572 1146 b 489 1225 572 1192 533 1225 b 406 1146 444 1225 406 1192 b 489 1068 406 1101 446 1068 b 572 1146 532 1068 572 1101 "},"Ã":{"ha":978,"x_min":0,"x_max":0,"o":"m 435 983 l 556 983 l 976 0 l 821 0 l 722 243 l 254 243 l 157 0 l 1 0 m 674 360 l 490 811 l 488 811 l 301 360 m 256 1056 b 396 1200 268 1128 314 1200 b 513 1168 438 1200 475 1183 b 588 1144 540 1157 558 1144 b 656 1206 625 1144 646 1172 l 722 1206 b 592 1061 711 1135 674 1061 b 479 1090 553 1061 514 1076 b 388 1117 451 1101 419 1117 b 322 1056 353 1117 332 1086 "},"Ç":{"ha":978,"x_min":0,"x_max":0,"o":"m 811 771 b 574 883 756 843 664 883 b 207 483 353 883 207 707 b 574 100 207 276 344 100 b 831 232 686 100 772 150 l 943 147 b 571 -25 914 107 796 -25 b 553 -24 565 -25 560 -25 l 508 -85 l 549 -85 b 676 -185 611 -83 676 -115 b 503 -317 676 -283 582 -317 b 357 -285 453 -317 403 -307 l 383 -229 b 492 -250 418 -243 456 -250 b 576 -192 525 -250 576 -239 b 446 -146 576 -121 497 -131 l 417 -121 l 489 -18 b 65 483 225 22 65 258 b 578 1008 65 789 275 1008 b 922 856 707 1008 843 960 "},"É":{"ha":849,"x_min":0,"x_max":0,"o":"m 126 983 l 761 983 l 761 858 l 260 858 l 260 565 l 726 565 l 726 440 l 260 440 l 260 125 l 786 125 l 786 0 l 126 0 m 478 1239 l 656 1239 l 449 1039 l 333 1039 "},"Ê":{"ha":849,"x_min":0,"x_max":0,"o":"m 126 983 l 761 983 l 761 858 l 260 858 l 260 565 l 726 565 l 726 440 l 260 440 l 260 125 l 786 125 l 786 0 l 126 0 m 528 1039 l 425 1172 l 322 1039 l 196 1039 l 351 1239 l 499 1239 l 654 1039 "},"Ë":{"ha":849,"x_min":0,"x_max":0,"o":"m 126 983 l 761 983 l 761 858 l 260 858 l 260 565 l 726 565 l 726 440 l 260 440 l 260 125 l 786 125 l 786 0 l 126 0 m 283 1247 b 369 1168 326 1247 369 1214 b 283 1081 369 1118 333 1081 b 197 1168 233 1081 197 1118 b 283 1247 197 1214 240 1247 m 567 1247 b 653 1168 610 1247 653 1214 b 567 1081 653 1118 617 1081 b 481 1168 517 1081 481 1118 b 567 1247 481 1214 524 1247 "},"È":{"ha":849,"x_min":0,"x_max":0,"o":"m 126 983 l 761 983 l 761 858 l 260 858 l 260 565 l 726 565 l 726 440 l 260 440 l 260 125 l 786 125 l 786 0 l 126 0 m 517 1039 l 401 1039 l 194 1239 l 372 1239 "},"Í":{"ha":386,"x_min":0,"x_max":0,"o":"m 126 983 l 260 983 l 260 0 l 126 0 m 246 1239 l 424 1239 l 217 1039 l 101 1039 "},"Î":{"ha":386,"x_min":0,"x_max":0,"o":"m 126 983 l 260 983 l 260 0 l 126 0 m 296 1039 l 193 1172 l 90 1039 l -36 1039 l 119 1239 l 267 1239 l 422 1039 "},"Ï":{"ha":386,"x_min":0,"x_max":0,"o":"m 126 983 l 260 983 l 260 0 l 126 0 m 51 1247 b 138 1168 94 1247 138 1214 b 51 1081 138 1118 101 1081 b -35 1168 1 1081 -35 1118 b 51 1247 -35 1214 8 1247 m 335 1247 b 421 1168 378 1247 421 1214 b 335 1081 421 1118 385 1081 b 249 1168 285 1081 249 1118 b 335 1247 249 1214 292 1247 "},"Ì":{"ha":386,"x_min":0,"x_max":0,"o":"m 126 983 l 260 983 l 260 0 l 126 0 m 285 1039 l 169 1039 l -37 1239 l 140 1239 "},"Ñ":{"ha":1106,"x_min":0,"x_max":0,"o":"m 126 983 l 301 983 l 843 175 l 846 175 l 846 983 l 979 983 l 979 0 l 810 0 l 263 808 l 260 808 l 260 0 l 126 0 m 319 1056 b 460 1200 332 1128 378 1200 b 576 1168 501 1200 539 1183 b 651 1144 604 1157 622 1144 b 719 1206 689 1144 710 1172 l 786 1206 b 656 1061 775 1135 738 1061 b 543 1090 617 1061 578 1076 b 451 1117 515 1101 483 1117 b 386 1056 417 1117 396 1086 "},"Ó":{"ha":1156,"x_min":0,"x_max":0,"o":"m 578 -25 b 65 492 278 -25 65 200 b 578 1008 65 783 278 1008 b 1090 492 878 1008 1090 783 b 578 -25 1090 200 878 -25 m 578 100 b 949 492 803 100 949 276 b 578 883 949 707 803 883 b 207 492 353 883 207 707 b 578 100 207 276 353 100 m 631 1239 l 808 1239 l 601 1039 l 486 1039 "},"Ô":{"ha":1156,"x_min":0,"x_max":0,"o":"m 578 -25 b 65 492 278 -25 65 200 b 578 1008 65 783 278 1008 b 1090 492 878 1008 1090 783 b 578 -25 1090 200 878 -25 m 578 100 b 949 492 803 100 949 276 b 578 883 949 707 803 883 b 207 492 353 883 207 707 b 578 100 207 276 353 100 m 681 1039 l 578 1172 l 475 1039 l 349 1039 l 504 1239 l 651 1239 l 807 1039 "},"Ö":{"ha":1156,"x_min":0,"x_max":0,"o":"m 578 -25 b 65 492 278 -25 65 200 b 578 1008 65 783 278 1008 b 1090 492 878 1008 1090 783 b 578 -25 1090 200 878 -25 m 578 100 b 949 492 803 100 949 276 b 578 883 949 707 803 883 b 207 492 353 883 207 707 b 578 100 207 276 353 100 m 436 1247 b 522 1168 479 1247 522 1214 b 436 1081 522 1118 486 1081 b 350 1168 386 1081 350 1118 b 436 1247 350 1214 393 1247 m 719 1247 b 806 1168 763 1247 806 1214 b 719 1081 806 1118 769 1081 b 633 1168 669 1081 633 1118 b 719 1247 633 1214 676 1247 "},"Ò":{"ha":1156,"x_min":0,"x_max":0,"o":"m 578 -25 b 65 492 278 -25 65 200 b 578 1008 65 783 278 1008 b 1090 492 878 1008 1090 783 b 578 -25 1090 200 878 -25 m 578 100 b 949 492 803 100 949 276 b 578 883 949 707 803 883 b 207 492 353 883 207 707 b 578 100 207 276 353 100 m 669 1039 l 554 1039 l 347 1239 l 525 1239 "},"Õ":{"ha":1156,"x_min":0,"x_max":0,"o":"m 578 -25 b 65 492 278 -25 65 200 b 578 1008 65 783 278 1008 b 1090 492 878 1008 1090 783 b 578 -25 1090 200 878 -25 m 578 100 b 949 492 803 100 949 276 b 578 883 949 707 803 883 b 207 492 353 883 207 707 b 578 100 207 276 353 100 m 344 1056 b 485 1200 357 1128 403 1200 b 601 1168 526 1200 564 1183 b 676 1144 629 1157 647 1144 b 744 1206 714 1144 735 1172 l 811 1206 b 681 1061 800 1135 763 1061 b 568 1090 642 1061 603 1076 b 476 1117 540 1101 508 1117 b 411 1056 442 1117 421 1086 "},"Š":{"ha":772,"x_min":0,"x_max":0,"o":"m 156 206 b 364 100 203 133 285 100 b 560 264 451 100 560 156 b 75 733 560 490 75 350 b 408 1008 75 849 172 1008 b 692 896 515 1008 618 986 l 583 797 b 408 883 550 849 485 883 b 217 733 261 883 217 794 b 701 279 217 485 701 633 b 360 -25 701 89 549 -25 b 46 111 233 -25 113 18 m 157 1239 l 278 1239 l 386 1106 l 489 1239 l 615 1239 l 460 1039 l 313 1039 "},"Ú":{"ha":978,"x_min":0,"x_max":0,"o":"m 242 983 l 242 381 b 489 100 242 258 303 100 b 736 381 675 100 736 258 l 736 983 l 869 983 l 869 360 b 489 -25 869 132 704 -25 b 108 360 274 -25 108 132 l 108 983 m 542 1239 l 719 1239 l 513 1039 l 397 1039 "},"Û":{"ha":978,"x_min":0,"x_max":0,"o":"m 242 983 l 242 381 b 489 100 242 258 303 100 b 736 381 675 100 736 258 l 736 983 l 869 983 l 869 360 b 489 -25 869 132 704 -25 b 108 360 274 -25 108 132 l 108 983 m 592 1039 l 489 1172 l 386 1039 l 260 1039 l 415 1239 l 563 1239 l 718 1039 "},"Ü":{"ha":978,"x_min":0,"x_max":0,"o":"m 242 983 l 242 381 b 489 100 242 258 303 100 b 736 381 675 100 736 258 l 736 983 l 869 983 l 869 360 b 489 -25 869 132 704 -25 b 108 360 274 -25 108 132 l 108 983 m 347 1247 b 433 1168 390 1247 433 1214 b 347 1081 433 1118 397 1081 b 261 1168 297 1081 261 1118 b 347 1247 261 1214 304 1247 m 631 1247 b 717 1168 674 1247 717 1214 b 631 1081 717 1118 681 1081 b 544 1168 581 1081 544 1118 b 631 1247 544 1214 588 1247 "},"Ù":{"ha":978,"x_min":0,"x_max":0,"o":"m 242 983 l 242 381 b 489 100 242 258 303 100 b 736 381 675 100 736 258 l 736 983 l 869 983 l 869 360 b 489 -25 869 132 704 -25 b 108 360 274 -25 108 132 l 108 983 m 581 1039 l 465 1039 l 258 1239 l 436 1239 "},"Ý":{"ha":850,"x_min":0,"x_max":0,"o":"m 358 419 l -14 983 l 157 983 l 425 551 l 701 983 l 864 983 l 492 419 l 492 0 l 358 0 m 478 1239 l 656 1239 l 449 1039 l 333 1039 "},"Ÿ":{"ha":850,"x_min":0,"x_max":0,"o":"m 358 419 l -14 983 l 157 983 l 425 551 l 701 983 l 864 983 l 492 419 l 492 0 l 358 0 m 283 1247 b 369 1168 326 1247 369 1214 b 283 1081 369 1118 333 1081 b 197 1168 233 1081 197 1118 b 283 1247 197 1214 240 1247 m 567 1247 b 653 1168 610 1247 653 1214 b 567 1081 653 1118 617 1081 b 481 1168 517 1081 481 1118 b 567 1247 481 1214 524 1247 "},"Ž":{"ha":824,"x_min":0,"x_max":0,"o":"m 44 125 l 604 858 l 61 858 l 61 983 l 771 983 l 771 858 l 214 125 l 779 125 l 779 0 l 44 0 m 183 1239 l 304 1239 l 413 1106 l 515 1239 l 642 1239 l 486 1039 l 339 1039 "},"á":{"ha":721,"x_min":0,"x_max":0,"o":"m 97 578 b 358 675 167 643 267 675 b 633 456 553 675 633 569 l 633 119 b 639 0 633 74 635 35 l 528 0 b 524 100 525 33 524 67 l 521 100 b 290 -17 465 15 390 -17 b 63 181 168 -17 63 53 b 425 408 63 350 225 408 l 517 408 l 517 436 b 360 575 517 504 467 575 b 172 500 264 575 218 535 m 450 317 b 188 190 332 317 188 296 b 329 83 188 115 243 83 b 517 275 468 83 517 186 l 517 317 m 414 983 l 592 983 l 385 783 l 269 783 "},"â":{"ha":721,"x_min":0,"x_max":0,"o":"m 97 578 b 358 675 167 643 267 675 b 633 456 553 675 633 569 l 633 119 b 639 0 633 74 635 35 l 528 0 b 524 100 525 33 524 67 l 521 100 b 290 -17 465 15 390 -17 b 63 181 168 -17 63 53 b 425 408 63 350 225 408 l 517 408 l 517 436 b 360 575 517 504 467 575 b 172 500 264 575 218 535 m 450 317 b 188 190 332 317 188 296 b 329 83 188 115 243 83 b 517 275 468 83 517 186 l 517 317 m 464 783 l 361 917 l 258 783 l 132 783 l 288 983 l 435 983 l 590 783 "},"ä":{"ha":721,"x_min":0,"x_max":0,"o":"m 97 578 b 358 675 167 643 267 675 b 633 456 553 675 633 569 l 633 119 b 639 0 633 74 635 35 l 528 0 b 524 100 525 33 524 67 l 521 100 b 290 -17 465 15 390 -17 b 63 181 168 -17 63 53 b 425 408 63 350 225 408 l 517 408 l 517 436 b 360 575 517 504 467 575 b 172 500 264 575 218 535 m 450 317 b 188 190 332 317 188 296 b 329 83 188 115 243 83 b 517 275 468 83 517 186 l 517 317 m 219 992 b 306 913 263 992 306 958 b 219 825 306 863 269 825 b 133 913 169 825 133 863 b 219 992 133 958 176 992 m 503 992 b 589 913 546 992 589 958 b 503 825 589 863 553 825 b 417 913 453 825 417 863 b 503 992 417 958 460 992 "},"à":{"ha":721,"x_min":0,"x_max":0,"o":"m 97 578 b 358 675 167 643 267 675 b 633 456 553 675 633 569 l 633 119 b 639 0 633 74 635 35 l 528 0 b 524 100 525 33 524 67 l 521 100 b 290 -17 465 15 390 -17 b 63 181 168 -17 63 53 b 425 408 63 350 225 408 l 517 408 l 517 436 b 360 575 517 504 467 575 b 172 500 264 575 218 535 m 450 317 b 188 190 332 317 188 296 b 329 83 188 115 243 83 b 517 275 468 83 517 186 l 517 317 m 453 783 l 338 783 l 131 983 l 308 983 "},"å":{"ha":721,"x_min":0,"x_max":0,"o":"m 97 578 b 358 675 167 643 267 675 b 633 456 553 675 633 569 l 633 119 b 639 0 633 74 635 35 l 528 0 b 524 100 525 33 524 67 l 521 100 b 290 -17 465 15 390 -17 b 63 181 168 -17 63 53 b 425 408 63 350 225 408 l 517 408 l 517 436 b 360 575 517 504 467 575 b 172 500 264 575 218 535 m 450 317 b 188 190 332 317 188 296 b 329 83 188 115 243 83 b 517 275 468 83 517 186 l 517 317 m 219 904 b 361 1042 219 982 286 1042 b 503 906 439 1042 504 982 b 361 768 504 828 439 768 b 219 904 286 768 219 828 m 444 904 b 361 983 444 950 406 983 b 278 904 317 983 278 950 b 361 826 278 860 318 826 b 444 904 404 826 444 860 "},"ã":{"ha":721,"x_min":0,"x_max":0,"o":"m 97 578 b 358 675 167 643 267 675 b 633 456 553 675 633 569 l 633 119 b 639 0 633 74 635 35 l 528 0 b 524 100 525 33 524 67 l 521 100 b 290 -17 465 15 390 -17 b 63 181 168 -17 63 53 b 425 408 63 350 225 408 l 517 408 l 517 436 b 360 575 517 504 467 575 b 172 500 264 575 218 535 m 450 317 b 188 190 332 317 188 296 b 329 83 188 115 243 83 b 517 275 468 83 517 186 l 517 317 m 128 800 b 268 944 140 872 186 944 b 385 913 310 944 347 928 b 460 889 413 901 431 889 b 528 950 497 889 518 917 l 594 950 b 464 806 583 879 546 806 b 351 835 425 806 386 821 b 260 861 324 846 292 861 b 194 800 225 861 204 831 "},"ç":{"ha":669,"x_min":0,"x_max":0,"o":"m 565 483 b 401 557 519 532 471 557 b 196 324 265 557 196 447 b 408 100 196 200 279 100 b 568 174 478 100 526 125 l 657 85 b 418 -15 594 15 510 -14 l 368 -85 l 408 -85 b 536 -185 471 -83 536 -115 b 363 -317 536 -283 442 -317 b 217 -285 313 -317 263 -307 l 243 -229 b 351 -250 278 -243 315 -250 b 436 -192 385 -250 436 -239 b 306 -146 436 -121 357 -131 l 276 -121 l 353 -11 b 63 326 179 10 63 142 b 407 674 63 529 201 674 b 660 569 503 674 594 640 "},"é":{"ha":772,"x_min":0,"x_max":0,"o":"m 189 283 b 411 92 189 168 296 92 b 592 190 488 92 543 131 l 686 118 b 394 -17 617 28 521 -17 b 56 329 186 -17 56 133 b 396 675 56 526 199 675 b 717 328 628 675 717 497 l 717 283 m 583 383 b 393 575 581 493 519 575 b 189 383 269 575 189 471 m 439 983 l 617 983 l 410 783 l 294 783 "},"ê":{"ha":772,"x_min":0,"x_max":0,"o":"m 189 283 b 411 92 189 168 296 92 b 592 190 488 92 543 131 l 686 118 b 394 -17 617 28 521 -17 b 56 329 186 -17 56 133 b 396 675 56 526 199 675 b 717 328 628 675 717 497 l 717 283 m 583 383 b 393 575 581 493 519 575 b 189 383 269 575 189 471 m 489 783 l 386 917 l 283 783 l 157 783 l 313 983 l 460 983 l 615 783 "},"ë":{"ha":772,"x_min":0,"x_max":0,"o":"m 189 283 b 411 92 189 168 296 92 b 592 190 488 92 543 131 l 686 118 b 394 -17 617 28 521 -17 b 56 329 186 -17 56 133 b 396 675 56 526 199 675 b 717 328 628 675 717 497 l 717 283 m 583 383 b 393 575 581 493 519 575 b 189 383 269 575 189 471 m 244 992 b 331 913 288 992 331 958 b 244 825 331 863 294 825 b 158 913 194 825 158 863 b 244 992 158 958 201 992 m 528 992 b 614 913 571 992 614 958 b 528 825 614 863 578 825 b 442 913 478 825 442 863 b 528 992 442 958 485 992 "},"è":{"ha":772,"x_min":0,"x_max":0,"o":"m 189 283 b 411 92 189 168 296 92 b 592 190 488 92 543 131 l 686 118 b 394 -17 617 28 521 -17 b 56 329 186 -17 56 133 b 396 675 56 526 199 675 b 717 328 628 675 717 497 l 717 283 m 583 383 b 393 575 581 493 519 575 b 189 383 269 575 189 471 m 478 783 l 363 783 l 156 983 l 333 983 "},"í":{"ha":333,"x_min":0,"x_max":0,"o":"m 104 658 l 229 658 l 229 0 l 104 0 m 219 983 l 397 983 l 190 783 l 75 783 "},"î":{"ha":333,"x_min":0,"x_max":0,"o":"m 104 658 l 229 658 l 229 0 l 104 0 m 269 783 l 167 917 l 64 783 l -62 783 l 93 983 l 240 983 l 396 783 "},"ï":{"ha":333,"x_min":0,"x_max":0,"o":"m 104 658 l 229 658 l 229 0 l 104 0 m 25 992 b 111 913 68 992 111 958 b 25 825 111 863 75 825 b -61 913 -25 825 -61 863 b 25 992 -61 958 -18 992 m 308 992 b 394 913 351 992 394 958 b 308 825 394 863 358 825 b 222 913 258 825 222 863 b 308 992 222 958 265 992 "},"ì":{"ha":333,"x_min":0,"x_max":0,"o":"m 104 658 l 229 658 l 229 0 l 104 0 m 258 783 l 143 783 l -64 983 l 114 983 "},"ñ":{"ha":772,"x_min":0,"x_max":0,"o":"m 94 658 l 219 658 l 219 557 l 222 557 b 439 675 254 626 338 675 b 678 424 567 675 678 599 l 678 0 l 553 0 l 553 389 b 403 558 553 513 482 558 b 219 339 299 558 219 492 l 219 0 l 94 0 m 153 800 b 293 944 165 872 211 944 b 410 913 335 944 372 928 b 485 889 438 901 456 889 b 553 950 522 889 543 917 l 619 950 b 489 806 608 879 571 806 b 376 835 450 806 411 821 b 285 861 349 846 317 861 b 219 800 250 861 229 831 "},"ó":{"ha":825,"x_min":0,"x_max":0,"o":"m 196 329 b 413 100 196 196 279 100 b 629 329 546 100 629 196 b 413 558 629 463 546 558 b 196 329 279 558 196 463 m 63 329 b 413 675 63 521 217 675 b 763 329 608 675 763 521 b 413 -17 763 138 608 -17 b 63 329 217 -17 63 138 m 465 983 l 643 983 l 436 783 l 321 783 "},"ô":{"ha":825,"x_min":0,"x_max":0,"o":"m 196 329 b 413 100 196 196 279 100 b 629 329 546 100 629 196 b 413 558 629 463 546 558 b 196 329 279 558 196 463 m 63 329 b 413 675 63 521 217 675 b 763 329 608 675 763 521 b 413 -17 763 138 608 -17 b 63 329 217 -17 63 138 m 515 783 l 413 917 l 310 783 l 183 783 l 339 983 l 486 983 l 642 783 "},"ö":{"ha":825,"x_min":0,"x_max":0,"o":"m 196 329 b 413 100 196 196 279 100 b 629 329 546 100 629 196 b 413 558 629 463 546 558 b 196 329 279 558 196 463 m 63 329 b 413 675 63 521 217 675 b 763 329 608 675 763 521 b 413 -17 763 138 608 -17 b 63 329 217 -17 63 138 m 271 992 b 357 913 314 992 357 958 b 271 825 357 863 321 825 b 185 913 221 825 185 863 b 271 992 185 958 228 992 m 554 992 b 640 913 597 992 640 958 b 554 825 640 863 604 825 b 468 913 504 825 468 863 b 554 992 468 958 511 992 "},"ò":{"ha":825,"x_min":0,"x_max":0,"o":"m 196 329 b 413 100 196 196 279 100 b 629 329 546 100 629 196 b 413 558 629 463 546 558 b 196 329 279 558 196 463 m 63 329 b 413 675 63 521 217 675 b 763 329 608 675 763 521 b 413 -17 763 138 608 -17 b 63 329 217 -17 63 138 m 504 783 l 389 783 l 182 983 l 360 983 "},"õ":{"ha":825,"x_min":0,"x_max":0,"o":"m 196 329 b 413 100 196 196 279 100 b 629 329 546 100 629 196 b 413 558 629 463 546 558 b 196 329 279 558 196 463 m 63 329 b 413 675 63 521 217 675 b 763 329 608 675 763 521 b 413 -17 763 138 608 -17 b 63 329 217 -17 63 138 m 179 800 b 319 944 192 872 238 944 b 436 913 361 944 399 928 b 511 889 464 901 482 889 b 579 950 549 889 569 917 l 646 950 b 515 806 635 879 597 806 b 403 835 476 806 438 821 b 311 861 375 846 343 861 b 246 800 276 861 256 831 "},"š":{"ha":617,"x_min":0,"x_max":0,"o":"m 444 493 b 310 558 415 529 372 558 b 200 485 251 558 200 532 b 368 382 200 406 313 394 b 560 190 476 356 560 314 b 293 -17 560 42 424 -17 b 39 100 185 -17 104 11 l 133 178 b 293 100 174 138 221 100 b 426 183 357 100 426 126 b 268 285 426 258 322 272 b 67 472 161 311 67 346 b 317 675 67 610 193 675 b 542 567 404 675 494 644 m 79 983 l 200 983 l 308 850 l 411 983 l 538 983 l 382 783 l 235 783 "},"ú":{"ha":772,"x_min":0,"x_max":0,"o":"m 678 0 l 553 0 l 553 101 l 550 101 b 333 -17 518 32 435 -17 b 94 235 206 -17 94 60 l 94 658 l 219 658 l 219 269 b 369 100 219 146 290 100 b 553 319 474 100 553 167 l 553 658 l 678 658 m 439 983 l 617 983 l 410 783 l 294 783 "},"û":{"ha":772,"x_min":0,"x_max":0,"o":"m 678 0 l 553 0 l 553 101 l 550 101 b 333 -17 518 32 435 -17 b 94 235 206 -17 94 60 l 94 658 l 219 658 l 219 269 b 369 100 219 146 290 100 b 553 319 474 100 553 167 l 553 658 l 678 658 m 489 783 l 386 917 l 283 783 l 157 783 l 313 983 l 460 983 l 615 783 "},"ü":{"ha":772,"x_min":0,"x_max":0,"o":"m 678 0 l 553 0 l 553 101 l 550 101 b 333 -17 518 32 435 -17 b 94 235 206 -17 94 60 l 94 658 l 219 658 l 219 269 b 369 100 219 146 290 100 b 553 319 474 100 553 167 l 553 658 l 678 658 m 244 992 b 331 913 288 992 331 958 b 244 825 331 863 294 825 b 158 913 194 825 158 863 b 244 992 158 958 201 992 m 528 992 b 614 913 571 992 614 958 b 528 825 614 863 578 825 b 442 913 478 825 442 863 b 528 992 442 958 485 992 "},"ù":{"ha":772,"x_min":0,"x_max":0,"o":"m 678 0 l 553 0 l 553 101 l 550 101 b 333 -17 518 32 435 -17 b 94 235 206 -17 94 60 l 94 658 l 219 658 l 219 269 b 369 100 219 146 290 100 b 553 319 474 100 553 167 l 553 658 l 678 658 m 478 783 l 363 783 l 156 983 l 333 983 "},"ý":{"ha":694,"x_min":0,"x_max":0,"o":"m 15 658 l 160 658 l 356 144 l 358 144 l 544 658 l 679 658 l 367 -142 b 142 -333 322 -256 279 -333 b 31 -315 104 -333 65 -329 l 46 -201 b 121 -217 69 -211 96 -217 b 249 -108 200 -217 224 -174 l 289 -4 m 400 983 l 578 983 l 371 783 l 256 783 "},"ÿ":{"ha":694,"x_min":0,"x_max":0,"o":"m 15 658 l 160 658 l 356 144 l 358 144 l 544 658 l 679 658 l 367 -142 b 142 -333 322 -256 279 -333 b 31 -315 104 -333 65 -329 l 46 -201 b 121 -217 69 -211 96 -217 b 249 -108 200 -217 224 -174 l 289 -4 m 206 992 b 292 913 249 992 292 958 b 206 825 292 863 256 825 b 119 913 156 825 119 863 b 206 992 119 958 163 992 m 489 992 b 575 913 532 992 575 958 b 489 825 575 863 539 825 b 403 913 439 825 403 863 b 489 992 403 958 446 992 "},"ž":{"ha":643,"x_min":0,"x_max":0,"o":"m 49 113 l 422 550 l 61 550 l 61 658 l 575 658 l 575 547 l 199 108 l 594 108 l 594 0 l 49 0 m 93 983 l 214 983 l 322 850 l 425 983 l 551 983 l 396 783 l 249 783 "},"∆":{"ha":901,"x_min":0,"x_max":0,"o":"m 42 79 l 383 1004 l 524 1004 l 858 81 l 858 0 l 42 0 m 731 99 l 540 607 b 451 867 517 683 468 803 l 446 867 b 365 629 433 814 389 706 l 165 99 "},"Ω":{"ha":994,"x_min":0,"x_max":0,"o":"m 268 103 b 83 531 172 190 83 338 b 501 994 83 800 261 994 b 908 538 754 994 908 772 b 722 103 908 339 815 183 l 722 99 l 928 99 l 928 0 l 588 0 l 588 74 b 788 514 689 140 788 290 b 500 893 786 696 689 893 b 206 510 321 893 206 725 b 406 74 206 301 304 138 l 406 0 l 64 0 l 64 99 l 268 99 "},"μ":{"ha":772,"x_min":0,"x_max":0,"o":"m 94 658 l 219 658 l 219 269 b 369 100 219 146 290 100 b 553 319 474 100 553 167 l 553 658 l 678 658 l 678 0 l 553 0 l 553 101 l 550 101 b 333 -17 518 32 435 -17 b 219 8 292 -17 253 -8 l 219 -317 l 94 -317 "},"π":{"ha":801,"x_min":0,"x_max":0,"o":"m 657 626 l 657 207 b 676 0 657 93 667 39 l 560 0 b 536 197 546 25 536 86 l 536 626 l 299 626 b 199 0 290 453 250 136 l 82 0 b 179 626 133 154 174 446 b 29 610 97 626 58 621 l 11 690 b 217 731 46 714 108 731 l 776 731 l 765 626 "},"€":{"ha":772,"x_min":0,"x_max":0,"o":"m 729 950 b 524 1000 681 979 601 1000 b 142 671 340 1000 193 893 l 63 671 l 33 578 l 125 578 b 121 481 122 547 121 515 l 121 443 b 122 410 121 432 121 421 l 58 410 l 32 319 l 132 319 b 479 -17 167 99 281 -17 b 726 100 586 -17 678 35 l 658 168 b 485 86 618 119 563 86 b 253 319 346 86 276 164 l 557 319 l 581 410 l 244 410 b 243 442 243 419 243 431 l 243 476 b 249 578 243 514 244 546 l 625 578 l 649 671 l 265 671 b 518 893 306 821 397 893 b 700 846 594 893 657 878 "},"ℓ":{"ha":683,"x_min":0,"x_max":0,"o":"m 651 169 b 386 -10 588 46 494 -10 b 151 243 225 -10 160 107 l 151 261 b 74 197 128 242 100 218 l 39 265 b 150 363 79 300 117 329 l 150 739 b 372 1081 150 993 261 1081 b 549 849 493 1081 549 976 b 265 340 549 674 436 508 l 265 290 b 411 86 267 146 335 86 b 597 219 496 86 561 157 m 265 457 b 468 849 381 585 468 718 b 374 990 468 933 443 990 b 265 746 324 990 265 932 "},"℮":{"ha":1226,"x_min":0,"x_max":0,"o":"m 263 478 b 256 471 258 478 256 476 l 256 194 b 267 163 256 183 260 172 b 613 13 356 71 478 13 b 976 181 758 13 888 79 l 1058 181 b 611 -15 957 63 793 -15 b 47 492 300 -15 47 211 b 611 1000 47 772 300 1000 b 1176 492 924 1000 1176 772 l 1176 478 m 969 792 b 956 825 969 804 965 815 b 613 969 867 913 747 969 b 268 821 479 969 357 911 b 256 786 260 811 256 799 l 256 514 b 263 504 256 511 258 504 l 964 504 b 969 514 968 504 969 511 "},"∂":{"ha":767,"x_min":0,"x_max":0,"o":"m 103 1022 b 339 1101 149 1058 222 1101 b 697 571 525 1101 697 931 b 329 -11 697 236 569 -11 b 58 315 146 -11 58 157 b 354 675 58 536 196 675 b 578 547 479 675 556 588 l 579 547 b 581 606 581 563 581 589 b 326 1001 581 836 468 1001 b 142 933 240 1001 181 965 m 342 90 b 565 433 467 90 549 258 b 375 578 547 490 478 578 b 176 314 265 578 176 457 b 340 90 176 185 240 90 "},"∏":{"ha":978,"x_min":0,"x_max":0,"o":"m 792 869 l 792 -135 l 672 -135 l 672 869 l 303 869 l 303 -135 l 185 -135 l 185 869 l 36 869 l 36 979 l 940 979 l 940 869 "},"∑":{"ha":769,"x_min":0,"x_max":0,"o":"m 32 -135 l 32 -56 l 397 421 l 47 894 l 47 979 l 718 979 l 718 876 l 213 876 l 213 871 l 533 439 l 183 -17 l 183 -22 l 739 -22 l 739 -135 "},"∙":{"ha":386,"x_min":0,"x_max":0,"o":"m 101 421 b 193 513 101 471 143 513 b 285 421 243 513 285 471 b 193 329 285 371 243 329 b 101 421 143 329 101 371 "},"√":{"ha":801,"x_min":0,"x_max":0,"o":"m 494 -207 l 392 -207 l 172 436 l 69 397 l 47 468 l 247 547 l 417 43 b 442 -64 425 6 436 -35 l 443 -64 b 463 44 447 -36 456 6 l 717 1167 l 803 1167 "},"∞":{"ha":1083,"x_min":0,"x_max":0,"o":"m 1013 406 b 797 179 1013 267 908 179 b 543 344 711 179 639 231 b 281 179 469 258 394 179 b 69 400 167 179 69 274 b 290 625 69 531 164 625 b 547 461 396 625 474 550 b 807 625 617 538 688 625 b 1013 407 928 625 1013 536 m 292 253 b 503 397 379 253 446 336 b 283 554 442 474 381 554 b 146 399 196 554 146 483 b 290 253 146 318 206 253 m 797 554 b 586 404 706 554 633 454 b 801 253 676 301 728 253 b 936 400 888 253 936 329 b 799 554 936 496 878 554 "},"∫":{"ha":510,"x_min":0,"x_max":0,"o":"m 467 1097 b 417 1111 454 1106 435 1111 b 346 1078 393 1111 364 1101 b 301 831 313 1036 301 960 b 321 132 301 610 321 365 b 263 -151 321 -15 294 -100 b 115 -229 231 -206 172 -229 b 21 -207 78 -229 39 -217 l 40 -119 b 103 -136 53 -125 75 -136 b 167 -104 125 -136 150 -125 b 211 132 193 -69 211 -7 b 192 842 211 368 192 617 b 268 1143 192 997 213 1085 b 407 1200 304 1182 357 1200 b 485 1182 438 1200 469 1190 "},"≈":{"ha":779,"x_min":0,"x_max":0,"o":"m 715 568 b 535 432 676 492 618 432 b 374 490 478 432 439 453 b 246 538 331 515 292 538 b 110 435 182 538 144 489 l 61 475 b 254 611 103 557 172 611 b 408 556 322 611 371 575 b 538 506 458 528 489 506 b 668 610 594 506 629 543 m 715 325 b 535 190 676 250 619 190 b 374 249 478 190 439 211 b 246 296 331 274 292 296 b 110 192 181 296 144 246 l 61 233 b 254 369 103 315 174 369 b 408 314 324 369 371 333 b 538 264 454 289 489 264 b 668 367 594 264 629 301 "},"≠":{"ha":779,"x_min":0,"x_max":0,"o":"m 496 574 l 708 574 l 708 499 l 467 499 l 375 297 l 708 297 l 708 222 l 346 222 l 272 60 l 213 86 l 274 222 l 69 222 l 69 297 l 304 297 l 394 499 l 69 499 l 69 574 l 425 574 l 497 733 l 557 707 "},"≤":{"ha":779,"x_min":0,"x_max":0,"o":"m 78 450 l 78 531 l 704 844 l 704 754 l 157 493 l 157 490 l 704 226 l 704 136 m 71 3 l 71 81 l 708 81 l 708 3 "},"≥":{"ha":779,"x_min":0,"x_max":0,"o":"m 706 531 l 706 450 l 79 136 l 79 226 l 626 489 l 626 492 l 79 754 l 79 844 m 72 3 l 72 81 l 707 81 l 707 3 "},"◊":{"ha":801,"x_min":0,"x_max":0,"o":"m 447 -64 l 350 -64 l 75 489 l 354 1043 l 451 1043 l 726 489 m 428 865 b 403 942 418 890 407 921 l 399 942 b 371 865 392 919 383 892 l 183 492 l 374 108 b 397 35 385 81 394 53 l 403 35 b 428 107 408 53 419 90 l 618 486 "}," ":{"ha":386,"x_min":0,"x_max":0,"o":""},"­":{"ha":439,"x_min":0,"x_max":0,"o":"m 390 278 l 49 278 l 49 394 l 390 394 "},"ˉ":{"ha":333,"x_min":0,"x_max":0,"o":"m 367 833 l -33 833 l -33 925 l 367 925 "},"Ω":{"ha":994,"x_min":0,"x_max":0,"o":"m 268 103 b 83 531 172 190 83 338 b 501 994 83 800 261 994 b 908 538 754 994 908 772 b 722 103 908 339 815 183 l 722 99 l 928 99 l 928 0 l 588 0 l 588 74 b 788 514 689 140 788 290 b 500 893 786 696 689 893 b 206 510 321 893 206 725 b 406 74 206 301 304 138 l 406 0 l 64 0 l 64 99 l 268 99 "},"∕":{"ha":232,"x_min":0,"x_max":0,"o":"m -147 -44 l -231 0 l 379 1028 l 463 983 "}}}
